<svg width="14" height="18" viewBox="0 0 14 18" fill="none" xmlns="http://www.w3.org/2000/svg">
<g clip-path="url(#clip0_557_2065)">
<path d="M7.71296 1.97872C8.83961 0.507174 10.4059 0.5 10.4059 0.5C10.4059 0.5 10.6389 1.8835 9.51963 3.21626C8.32454 4.63935 6.96614 4.40648 6.96614 4.40648C6.96614 4.40648 6.71107 3.28727 7.71296 1.97872ZM7.10944 5.37562C7.68904 5.37562 8.76476 4.58609 10.165 4.58609C12.5752 4.58609 13.5233 6.28561 13.5233 6.28561C13.5233 6.28561 11.6689 7.22519 11.6689 9.50503C11.6689 12.0769 13.979 12.9632 13.979 12.9632C13.979 12.9632 12.3641 17.4675 10.1829 17.4675C9.18107 17.4675 8.4022 16.7984 7.34662 16.7984C6.2709 16.7984 5.20341 17.4924 4.50814 17.4924C2.51634 17.4925 0 13.2197 0 9.78518C0 6.40606 2.12992 4.63343 4.12769 4.63343C5.42642 4.63343 6.43425 5.37562 7.10944 5.37562Z" fill="white"/>
</g>
<defs>
<clipPath id="clip0_557_2065">
<rect width="14" height="17" fill="white" transform="translate(0 0.5)"/>
</clipPath>
</defs>
</svg>
