<svg width="18" height="7" viewBox="0 0 18 7" fill="none" xmlns="http://www.w3.org/2000/svg">
<g clip-path="url(#clip0_557_2050)">
<path d="M1.98553 6.49751C1.44921 6.47758 1.01041 6.34032 0.667312 6.08539C0.601833 6.03668 0.445803 5.89066 0.393456 5.82907C0.254323 5.66544 0.159731 5.50619 0.0966396 5.32951C-0.097503 4.78562 0.00241528 4.07192 0.382435 3.28864C0.707812 2.61805 1.20988 1.95297 2.08582 1.03183C2.21485 0.896283 2.5991 0.499878 2.60158 0.499878C2.60249 0.499878 2.58155 0.533806 2.5552 0.575122C2.32744 0.93193 2.13257 1.35221 2.0264 1.71607C1.85586 2.2999 1.87643 2.80092 2.08665 3.18943C2.23166 3.45708 2.48026 3.68891 2.75981 3.81706C3.24921 4.04134 3.96572 4.05989 4.84073 3.87135C4.90098 3.85829 7.88622 3.1171 11.4746 2.22422C15.0631 1.33126 17.9995 0.601234 18 0.601835C18.001 0.60261 9.66307 3.93964 5.33472 5.67086C4.64926 5.94495 4.46595 6.01418 4.14369 6.12C3.31992 6.39057 2.58201 6.51967 1.98553 6.49751Z" fill="white"/>
</g>
<defs>
<clipPath id="clip0_557_2050">
<rect width="18" height="6" fill="white" transform="translate(0 0.5)"/>
</clipPath>
</defs>
</svg>
