<svg width="24" height="25" viewBox="0 0 24 25" fill="none" xmlns="http://www.w3.org/2000/svg">
<path d="M14.991 11.98C17.744 10.88 19.458 10.248 24 9.14C21.533 9.303 16.078 9.677 12.318 10.411L14.991 11.981V11.98ZM6.431 15.632H10.031C10.744 14.552 11.453 14.026 12.279 13.441C11.6517 13.1984 11.0209 12.9647 10.387 12.74C8.09 13.754 6.812 15.115 6.434 15.632H6.431ZM7.143 11.704C3.933 12.851 2.149 14.097 0.944 15.632H4.919C5.306 15.093 6.781 13.539 9.552 12.458C8.75432 12.1889 7.95079 11.9375 7.142 11.704H7.143ZM8.79 9.288H0C8.862 10.888 13.133 12.948 20 15.86C19.413 15.421 9.949 9.847 8.791 9.288" fill="white"/>
</svg>
