<svg width="22" height="5" viewBox="0 0 22 5" fill="none" xmlns="http://www.w3.org/2000/svg">
<g clip-path="url(#clip0_557_2056)">
<path d="M18.1346 3.76241V4.18232H20.4702V3.76096H20.0283L19.9128 3.7545C19.866 3.74225 19.8334 3.71023 19.8215 3.67611L19.8118 3.58401V2.91995L19.8294 2.85737C19.8607 2.82087 21.0687 1.45995 21.1244 1.40039C21.2409 1.26824 21.3042 1.23978 21.4602 1.23978H21.8899V0.822242H19.9657V1.23978H20.2538C20.3393 1.23978 20.363 1.32529 20.3262 1.37088L19.5084 2.31334L19.4851 2.31071L18.6884 1.37088C18.631 1.30105 18.6784 1.23978 18.7408 1.23978H19.0238V0.822242H16.6756V1.23978H17.094C17.2756 1.23978 17.3936 1.35362 17.4628 1.42767C17.517 1.4859 18.7126 2.82351 18.7408 2.86158C18.7706 2.89834 18.7706 2.90375 18.7706 2.91995V3.58401L18.763 3.67611C18.7447 3.71023 18.7161 3.74225 18.6707 3.7545L18.5531 3.76241H18.1346ZM10.9484 0.822242V1.24097H11.3204C11.5901 1.24097 11.6097 1.38972 11.6097 1.51713V3.48374C11.6097 3.60166 11.6166 3.76241 11.4443 3.76241H10.9826V4.18232H12.9502V3.76241H12.4707C12.2806 3.76241 12.2695 3.67756 12.2663 3.49191V1.80897L14.9643 4.18232H15.6496L15.6137 1.50145C15.6185 1.30685 15.6295 1.23978 15.8333 1.23978H16.2638V0.822242H14.261V1.23978H14.7021C14.9024 1.23978 14.9384 1.3187 14.9394 1.50145L14.9643 2.90375L12.6227 0.822242H10.9484ZM2.10405 0.608531C1.68222 0.608531 1.20136 0.689826 0.797429 0.867435C0.420217 1.03398 0.109924 1.30105 0.109924 1.74599C0.109924 2.14456 0.367856 2.37896 0.359841 2.37131C0.470975 2.47145 0.647159 2.64168 1.10866 2.73958C1.31369 2.78464 1.75382 2.85104 2.19381 2.89966C2.62859 2.94406 3.0583 2.98715 3.23341 3.02984C3.37193 3.06594 3.60328 3.11324 3.60328 3.3699C3.60328 3.62788 3.35817 3.70536 3.31543 3.72156C3.27162 3.73935 2.97855 3.8719 2.448 3.8719C2.0577 3.8719 1.58819 3.75608 1.41668 3.69772C1.22099 3.62788 1.01435 3.5346 0.820937 3.30192C0.772183 3.24394 0.699786 3.08518 0.699786 2.92891H0.216649V4.25136H0.749475V4.07309C0.749475 4.05491 0.777659 3.96914 0.864348 4.01117C0.974948 4.06163 1.30194 4.18772 1.64522 4.25782C1.92372 4.315 2.10405 4.35598 2.45134 4.35598C3.01983 4.35598 3.32398 4.26559 3.53396 4.20643C3.73579 4.14912 3.98116 4.0478 4.17791 3.89298C4.28611 3.80931 4.5212 3.59086 4.5212 3.19717C4.5212 2.81731 4.31763 2.58186 4.24337 2.5119C4.14465 2.41374 4.02564 2.33851 3.89968 2.28027C3.78828 2.23047 3.61624 2.16828 3.47585 2.13534C3.19962 2.06709 2.57957 1.98566 2.28491 1.95601C1.97448 1.92281 1.43297 1.87894 1.21925 1.81319C1.15367 1.79408 1.01889 1.72939 1.01889 1.57813C1.01889 1.47049 1.08221 1.37773 1.20136 1.30184C1.39143 1.18458 1.7804 1.1125 2.18018 1.1125C2.65771 1.11145 3.05977 1.21527 3.31543 1.32924C3.40305 1.37088 3.50363 1.42345 3.58632 1.48893C3.67741 1.56259 3.80484 1.71503 3.85119 1.92795H4.28224V0.77639H3.80297V0.909729C3.80297 0.953736 3.75782 1.00881 3.6702 0.964277C3.45648 0.851624 2.84966 0.612089 2.10405 0.608531ZM7.86896 4.39142C7.08101 4.39142 6.35022 4.15742 5.85974 3.72367C5.49241 3.39718 5.31249 2.95289 5.31249 2.49754C5.31249 2.04706 5.49909 1.59671 5.85974 1.27167C6.31403 0.864668 7.1164 0.6084 7.86896 0.6084C8.70753 0.6084 9.37447 0.816972 9.88365 1.27364C10.2475 1.60027 10.4236 2.04442 10.4236 2.49754C10.4236 2.93497 10.2376 3.40232 9.88365 3.72367C9.41013 4.1615 8.66185 4.39142 7.86896 4.39142V3.89298C8.29078 3.89298 8.67788 3.74844 8.94837 3.48374C9.21779 3.2172 9.34335 2.89465 9.34335 2.49754C9.34335 2.11373 9.20844 1.76101 8.94837 1.50843C8.68162 1.2494 8.28277 1.10078 7.86896 1.10078C7.45488 1.10078 7.05817 1.2469 6.78848 1.50843C6.53229 1.76101 6.39604 2.11702 6.39604 2.49754C6.39604 2.87529 6.53402 3.22985 6.78848 3.48374C7.05817 3.74699 7.45488 3.89298 7.86896 3.89298" fill="white"/>
</g>
<defs>
<clipPath id="clip0_557_2056">
<rect width="22" height="4" fill="white" transform="translate(0 0.5)"/>
</clipPath>
</defs>
</svg>
