<svg width="18" height="19" viewBox="0 0 18 19" fill="none" xmlns="http://www.w3.org/2000/svg">
<g clip-path="url(#clip0_557_2044)">
<path d="M9.00011 4.52151L10.8564 2.25201C13.1821 2.37876 15.3481 2.93301 17.3206 3.83826L17.2104 3.79251C16.5894 4.60101 15.7704 5.22876 14.8254 5.60751L14.7871 5.62101C14.6776 4.54176 13.9216 4.27851 11.5216 4.27851L9.00086 18.5L6.46511 4.27551C4.08011 4.27551 3.32411 4.54101 3.21386 5.61951C2.23136 5.23026 1.41311 4.60551 0.801859 3.81276L0.792109 3.80001C2.65286 2.93901 4.81886 2.38326 7.09886 2.25726L7.14461 2.25501L9.00086 4.52151H9.00011ZM9.00011 1.59651C9.08036 1.59501 9.17486 1.59501 9.26936 1.59501C12.2446 1.59501 15.0729 2.22501 17.6274 3.35901L17.4961 3.30726C17.6739 3.01176 17.8434 2.66751 17.9836 2.30901L18.0001 2.26176C15.3369 1.16451 12.2469 0.519513 9.00761 0.500763H9.00011C5.75411 0.518763 2.66336 1.16376 -0.163391 2.32176L0.000108883 2.26251C0.168109 2.67876 0.336859 3.02376 0.527359 3.35601L0.504109 3.31251C2.93261 2.22651 5.76686 1.59426 8.74961 1.59426C8.83811 1.59426 8.92586 1.59501 9.01361 1.59576H9.00011V1.59651Z" fill="white"/>
</g>
<defs>
<clipPath id="clip0_557_2044">
<rect width="18" height="18" fill="white" transform="translate(0 0.5)"/>
</clipPath>
</defs>
</svg>
